<?xml version="1.0" encoding="UTF-8"?>
<svg id="Layer_1" xmlns="http://www.w3.org/2000/svg" version="1.1" viewBox="0 0 1360 238">
  <!-- Generator: Adobe Illustrator 29.3.1, SVG Export Plug-In . SVG Version: 2.1.0 Build 151)  -->
  <defs>
    <style>
      .st0 {
        fill: #fff;
      }
    </style>
  </defs>
  <path class="st0" d="M390.4,71.6c-5.1-5.9-16.9-11.5-27.3-11.5h-5.9c-24.5,0-44.8,21.7-44.8,48.7v79.4c0,27,20.3,49,44.8,49h5.9c10.4,0,22.3-5.6,27.3-11.5l1.7,8.8h26.5V9h-28.2v62.6ZM390.4,189.1c0,12.4-9.9,22.5-22,22.5h-5.9c-12.1,0-22-10.4-22-23.1v-79.7c0-12.7,9.9-23.4,22-23.4h5.9c12.1,0,22,10.7,22,23.4v80.3Z"/>
  <path class="st0" d="M450.5,88.5h36v146h28.2V63.1h-64.2v25.3Z"/>
  <path class="st0" d="M230.2,60.3h-5.9c-27.6,0-50.2,21.7-50.2,48.7v79.4c0,27,22.5,48.7,50.2,48.7h5.9c27.6,0,50.2-21.7,50.2-48.7v-5.1h-28.2v5.1c0,12.7-9.6,23.1-22,23.1h-5.9c-12.1,0-22-10.4-22-23.1v-27h78v-52.4c0-27-22.5-48.7-50.2-48.7h0ZM252.2,136.1h-49.9v-27c0-13,9.9-23.4,22-23.4h5.9c12.4,0,22,10.4,22,23.4v27h0Z"/>
  <path class="st0" d="M1360,161.4v-52.4c0-27-22.5-48.7-50.2-48.7h-5.9c-27.6,0-50.2,21.7-50.2,48.7v79.4c0,27,22.5,48.7,50.2,48.7h5.9c27.6,0,50.2-21.7,50.2-48.7v-5.1h-28.2v5.1c0,12.7-9.6,23.1-22,23.1h-5.9c-12.1,0-22-10.4-22-23.1v-27h78.1ZM1282,109c0-13,9.9-23.4,22-23.4h5.9c12.4,0,22,10.4,22,23.4v27h-49.9v-27h0Z"/>
  <path class="st0" d="M1039,203.2v-94.4c0-26.8-22.5-48.5-50.2-48.5h-2.5c-27.6,0-50.2,21.7-50.2,48.7v5.4h28.2v-5.4c0-13,9.9-23.4,22-23.4h2.5c12.4,0,22,10.4,22,23.4v28.2c-4.5-1.7-12.4-2.8-19.5-2.8-24.2,0-58.3,13.5-58.3,54.1s20,48.7,47.6,48.7h5.9c15.5,0,24.5-6.2,31.9-13.2,5.6,8.5,13,11,21.4,11s9.9,0,14.7-.6v-25.6h-9.9c-3.1,0-5.6-2-5.6-5.6ZM1010.8,188.5c0,12.1-9.6,23.1-22,23.1h-5.9c-12.1,0-21.7-9-21.7-23.1,0-20.3,15.5-30.2,30.7-30.2s13.2,1.4,18.9,4.5v25.6h0Z"/>
  <path class="st0" d="M497.8,0c-11,0-19.7,9-19.7,20s8.8,19.7,19.7,19.7,20-8.8,20-19.7S508.8,0,497.8,0Z"/>
  <path class="st0" d="M833.1,111.3l.3,123.1h27.9v-123.1c0-21.1,14.6-23.1,30.7-23.1s12.4.2,19.1.5v-25.2c-7.2-.4-15-.6-19.1-.6-30.4,0-58.9,7.9-58.9,48.5h0Z"/>
  <path class="st0" d="M660.5,203.2v-94.4c0-26.8-22.5-48.5-50.2-48.5h-2.5c-27.6,0-50.2,21.7-50.2,48.7v5.4h28.2v-5.4c0-13,9.9-23.4,22-23.4h2.5c12.4,0,22,10.4,22,23.4v28.2c-4.5-1.7-12.4-2.8-19.5-2.8-24.2,0-58.3,13.5-58.3,54.1s20,48.7,47.6,48.7h5.9c15.5,0,24.5-6.2,31.8-13.2,5.6,8.5,12.9,11,21.4,11s9.9,0,14.6-.6v-25.6h-9.9c-3.1,0-5.6-2-5.6-5.6h0ZM632.3,188.5c0,12.1-9.6,23.1-22,23.1h-5.9c-12.1,0-21.7-9-21.7-23.1,0-20.3,15.5-30.2,30.7-30.2s13.2,1.4,18.9,4.5v25.6h0Z"/>
  <path class="st0" d="M708.3,234.4h29v-91.9h55.4v-26.2h-55.4V43.4h72.4v-25.9h-101.4v217Z"/>
  <path class="st0" d="M111,60.3c-9.8,0-22.7,4.4-29.3,14.8-4.8-8-14.7-14.8-28-14.8s-17.5,2.9-24.6,9.3h0c0-.1-2.2-7.6-2.2-7.6H0v171.3h27.6V98.6c.2-8.6,8.2-13,14.4-13s15.5,4.2,15.5,11v137.8h27.3V98.8h0c0-8.7,8.2-13.2,14.4-13.2s15.5,4.2,15.5,11v137.8h27.3V85.3c0-11.3-12.2-25.1-31.1-25.1Z"/>
  <path class="st0" d="M1190.7,60.3c-9.8,0-22.7,4.4-29.3,14.8-4.8-8-14.7-14.8-27.9-14.8s-17.5,2.9-24.6,9.3h0c0-.1-2.2-7.6-2.2-7.6h-27v171.3h27.6V98.6c.2-8.6,8.2-13,14.3-13s15.5,4.2,15.5,11v137.8h27.3V98.8h0c0-8.7,8.2-13.2,14.4-13.2s15.5,4.2,15.5,11v137.8h27.3V85.3c0-11.3-12.2-25.1-31.1-25.1Z"/>
</svg>