<?xml version="1.0" encoding="UTF-8"?>
<svg id="Layer_2" xmlns="http://www.w3.org/2000/svg" version="1.1" viewBox="0 0 481.1 91.1">
  <!-- Generator: Adobe Illustrator 29.4.0, SVG Export Plug-In . SVG Version: 2.1.0 Build 152)  -->
  <defs>
    <style>
      .st0 {
        fill: #26a6ff;
      }

      .st1 {
        fill: #003367;
      }
    </style>
  </defs>
  <g id="Layer_1-2">
    <g>
      <g>
        <path class="st1" d="M213,45.3c-1.4-1.6-4.7-3.2-7.6-3.2h-1.6c-6.8,0-12.4,6-12.4,13.5v22c0,7.5,5.6,13.6,12.4,13.6h1.6c2.9,0,6.2-1.6,7.6-3.2l.5,2.4h7.3V28h-7.8v17.3h0ZM213,77.8c0,3.4-2.7,6.2-6.1,6.2h-1.6c-3.4,0-6.1-2.9-6.1-6.4v-22c0-3.5,2.7-6.5,6.1-6.5h1.6c3.4,0,6.1,3,6.1,6.5,0,0,0,22.2,0,22.2Z"/>
        <polygon class="st1" points="229.6 49.9 239.5 49.9 239.5 90.3 247.3 90.3 247.3 42.9 229.6 42.9 229.6 49.9"/>
        <path class="st1" d="M168.7,42.2h-1.6c-7.6,0-13.9,6-13.9,13.5v22c0,7.5,6.2,13.5,13.9,13.5h1.6c7.6,0,13.9-6,13.9-13.5v-1.4h-7.8v1.4c0,3.5-2.6,6.4-6.1,6.4h-1.6c-3.4,0-6.1-2.9-6.1-6.4v-7.5h21.6v-14.5c0-7.5-6.2-13.5-13.9-13.5h0ZM174.7,63.1h-13.8v-7.5c0-3.6,2.7-6.5,6.1-6.5h1.6c3.4,0,6.1,2.9,6.1,6.5v7.5h0Z"/>
        <path class="st1" d="M481.1,70.1v-14.5c0-7.5-6.2-13.5-13.9-13.5h-1.6c-7.6,0-13.9,6-13.9,13.5v22c0,7.5,6.2,13.5,13.9,13.5h1.6c7.6,0,13.9-6,13.9-13.5v-1.4h-7.8v1.4c0,3.5-2.6,6.4-6.1,6.4h-1.6c-3.4,0-6.1-2.9-6.1-6.4v-7.5h21.6ZM459.5,55.6c0-3.6,2.7-6.5,6.1-6.5h1.6c3.4,0,6.1,2.9,6.1,6.5v7.5h-13.8v-7.5h0Z"/>
        <path class="st1" d="M392.3,81.7v-26.1c0-7.4-6.2-13.4-13.9-13.4h-.7c-7.6,0-13.9,6-13.9,13.5v1.5h7.8v-1.5c0-3.6,2.7-6.5,6.1-6.5h.7c3.4,0,6.1,2.9,6.1,6.5v7.8c-1.2-.5-3.4-.8-5.4-.8-6.7,0-16.1,3.7-16.1,15s5.5,13.5,13.2,13.5h1.6c4.3,0,6.8-1.7,8.8-3.7,1.6,2.3,3.6,3,5.9,3s2.7,0,4-.2v-7.1h-2.7c-.9,0-1.6-.6-1.6-1.6ZM384.5,77.6c0,3.3-2.6,6.4-6.1,6.4h-1.6c-3.4,0-6-2.5-6-6.4,0-5.6,4.3-8.3,8.5-8.3s3.7.4,5.2,1.2v7.1h0Z"/>
        <path class="st1" d="M242.7,25.5c-3,0-5.4,2.5-5.4,5.5s2.4,5.4,5.4,5.4,5.5-2.4,5.5-5.5-2.5-5.5-5.5-5.5Z"/>
        <path class="st1" d="M335.4,56.3v34h7.8v-34c0-5.8,4-6.4,8.5-6.4s3.4,0,5.3.1v-7c-2,0-4.1-.2-5.3-.2-8.4,0-16.3,2.2-16.3,13.4h0Z"/>
        <path class="st1" d="M287.6,81.7v-26.1c0-7.4-6.2-13.4-13.9-13.4h-.7c-7.6,0-13.9,6-13.9,13.5v1.5h7.8v-1.5c0-3.6,2.7-6.5,6.1-6.5h.7c3.4,0,6.1,2.9,6.1,6.5v7.8c-1.2-.5-3.4-.8-5.4-.8-6.7,0-16.1,3.7-16.1,15s5.5,13.5,13.2,13.5h1.6c4.3,0,6.8-1.7,8.8-3.7,1.6,2.3,3.6,3,5.9,3s2.7,0,4-.2v-7.1h-2.7c-.9,0-1.6-.6-1.6-1.6h0ZM279.9,77.6c0,3.3-2.6,6.4-6.1,6.4h-1.6c-3.4,0-6-2.5-6-6.4,0-5.6,4.3-8.3,8.5-8.3s3.7.4,5.2,1.2v7.1h0Z"/>
        <polygon class="st1" points="300.9 90.3 308.9 90.3 308.9 64.9 324.2 64.9 324.2 57.7 308.9 57.7 308.9 37.5 328.9 37.5 328.9 30.3 300.9 30.3 300.9 90.3"/>
        <path class="st1" d="M135.7,42.2c-2.7,0-6.3,1.2-8.1,4.1-1.3-2.2-4.1-4.1-7.7-4.1s-4.8.8-6.8,2.6h0s-.6-2.1-.6-2.1h-7.5v47.4h7.6v-37.2c0-2.4,2.3-3.6,4-3.6s4.3,1.2,4.3,3v38.1h7.6v-37.5h0c0-2.4,2.3-3.6,4-3.6s4.3,1.2,4.3,3v38.1h7.6v-41.2c0-3.1-3.4-6.9-8.6-6.9h0Z"/>
        <path class="st1" d="M434.3,42.2c-2.7,0-6.3,1.2-8.1,4.1-1.3-2.2-4.1-4.1-7.7-4.1s-4.9.8-6.8,2.6h0s-.6-2.1-.6-2.1h-7.5v47.4h7.6v-37.2c0-2.4,2.3-3.6,4-3.6s4.3,1.2,4.3,3v38.1h7.6v-37.5h0c0-2.4,2.3-3.6,4-3.6s4.3,1.2,4.3,3v38.1h7.6v-41.2c0-3.1-3.4-6.9-8.6-6.9Z"/>
      </g>
      <rect class="st0" width="30" height="30"/>
      <polygon class="st1" points="30 0 30 30 0 30 0 90 30 90 30 60 60 60 60 30 90 30 90 0 30 0"/>
    </g>
  </g>
</svg>