<?xml version="1.0" encoding="UTF-8"?>
<svg id="Layer_1" xmlns="http://www.w3.org/2000/svg" xmlns:xlink="http://www.w3.org/1999/xlink" version="1.1" viewBox="0 0 544 628">
  <!-- Generator: Adobe Illustrator 29.3.1, SVG Export Plug-In . SVG Version: 2.1.0 Build 151)  -->
  <defs>
    <style>
      .st0, .st1 {
        fill: none;
      }

      .st1 {
        stroke: #f5f5f5;
        stroke-linejoin: round;
        stroke-width: 2px;
      }

      .st2 {
        clip-path: url(#clippath);
      }
    </style>
    <clipPath id="clippath">
      <rect class="st0" width="544" height="628"/>
    </clipPath>
  </defs>
  <g class="st2">
    <g>
      <path class="st1" d="M362.2,261.9L91.6,105.6,272,1.4l270.6,156.3-180.4,104.2Z"/>
      <path class="st1" d="M362.2,366.1l-90.2,52.1L1.4,261.9v-104.2l90.2-52.1,270.6,156.3v104.2Z"/>
      <path class="st1" d="M542.6,157.7v104.2l-90.2,52.1v104.2l-90.2,52.1v104.2l-90.2,52.1v-208.4l90.2-52.1v-104.2l180.4-104.2Z"/>
      <path class="st1" d="M1.4,261.9l270.6,156.3v208.4L1.4,470.3v-208.4Z"/>
      <path class="st1" d="M362.2,261.9l-90.2,52.1v104.2l90.2-52.1v-104.2Z"/>
      <path class="st1" d="M1.4,157.7l270.6,156.3"/>
    </g>
  </g>
</svg>